<svg xmlns="http://www.w3.org/2000/svg" viewBox="0 0 512 512" role="img" aria-labelledby="title desc">
  <title id="title">Valentine Golden Ghanem favicon</title>
  <desc id="desc">Self-contained faceted G website icon for Valentine Golden Ghanem.</desc>
  <defs>
    <filter id="shadow" x="-20%" y="-20%" width="140%" height="150%">
      <feDropShadow dx="0" dy="14" stdDeviation="16" flood-color="#020617" flood-opacity="0.35"/>
    </filter>
    <linearGradient id="mint" x1="0" x2="1" y1="0" y2="1"><stop offset="0" stop-color="#A7FFCD"/><stop offset="1" stop-color="#10B981"/></linearGradient>
    <linearGradient id="yellow" x1="0" x2="1" y1="0" y2="1"><stop offset="0" stop-color="#FFE87A"/><stop offset="1" stop-color="#F59E0B"/></linearGradient>
    <linearGradient id="crimson" x1="0" x2="1" y1="0" y2="1"><stop offset="0" stop-color="#FF5964"/><stop offset="1" stop-color="#BE123C"/></linearGradient>
    <linearGradient id="violet" x1="0" x2="1" y1="0" y2="1"><stop offset="0" stop-color="#9766E1"/><stop offset="1" stop-color="#5B21B6"/></linearGradient>
    <linearGradient id="cyan" x1="0" x2="1" y1="0" y2="1"><stop offset="0" stop-color="#63D2FF"/><stop offset="1" stop-color="#0891B2"/></linearGradient>
  </defs>
  <rect width="512" height="512" rx="112" fill="#0B1120"/>
  <g filter="url(#shadow)" stroke="#0B1120" stroke-width="14" stroke-linejoin="round">
    <path d="M177 118c-46 28-76 80-77 137 0 55 27 106 72 136l53-69c-21-16-33-40-33-67 0-29 15-56 39-72z" fill="url(#mint)"/>
    <path d="M218 82c75-21 154 0 204 56l-60 63c-30-27-75-38-116-27z" fill="url(#yellow)"/>
    <path d="M169 388c66 52 160 54 229 6l-45-75c-37 24-87 22-123-5z" fill="url(#crimson)"/>
    <path d="M280 209h148v85H280z" fill="url(#violet)"/>
    <path d="M365 287h78v118h-78z" fill="url(#cyan)"/>
  </g>
</svg>
